<?xml version="1.0" standalone="no"?>
<!DOCTYPE svg PUBLIC "-//W3C//DTD SVG 20010904//EN"
 "http://www.w3.org/TR/2001/REC-SVG-20010904/DTD/svg10.dtd">
<svg version="1.0" xmlns="http://www.w3.org/2000/svg"
 width="512.000000pt" height="512.000000pt" viewBox="0 0 512.000000 512.000000"
 preserveAspectRatio="xMidYMid meet">
<metadata>
Created by potrace 1.11, written by Peter Selinger 2001-2013
</metadata>
<g transform="translate(0.000000,512.000000) scale(0.100000,-0.100000)"
fill="#000000" stroke="none">
<path d="M4 4809 c9 -94 26 -220 41 -324 17 -109 25 -156 32 -190 3 -16 7 -39
9 -50 9 -73 72 -335 111 -465 59 -200 107 -325 159 -422 14 -26 13 -30 -24
-85 -165 -243 -255 -578 -247 -918 2 -82 6 -163 10 -180 3 -16 10 -59 16 -95
15 -85 45 -197 75 -277 42 -111 228 -460 264 -493 18 -17 95 -117 145 -190 65
-93 220 -253 330 -342 253 -202 572 -356 915 -443 112 -28 298 -61 392 -70 37
-3 77 -8 90 -11 30 -6 422 -7 468 -1 19 3 67 8 105 12 67 7 79 9 135 19 14 3
42 8 63 11 55 8 190 36 200 42 4 2 20 6 35 9 30 5 249 78 300 100 17 8 49 21
70 30 51 22 179 86 221 110 59 33 215 136 246 163 17 14 49 40 70 58 110 88
253 244 320 348 19 30 49 71 68 92 42 46 127 173 154 228 11 22 37 72 59 110
140 247 206 507 206 810 0 140 -19 305 -48 420 -41 158 -128 357 -202 460 -19
27 -35 54 -35 60 0 5 18 48 40 95 58 123 160 434 187 570 3 14 16 79 30 146
14 67 28 136 31 155 3 19 8 41 10 49 2 8 7 40 10 70 3 30 8 62 10 70 2 8 7 38
10 65 3 28 7 64 10 80 8 53 14 98 20 168 l7 68 -134 -134 c-123 -124 -230
-222 -303 -278 -16 -13 -39 -33 -51 -44 -12 -11 -45 -40 -75 -65 -102 -86
-216 -208 -274 -294 -32 -47 -62 -86 -67 -86 -4 0 -56 14 -115 30 -60 17 -117
32 -128 35 -11 2 -48 11 -82 19 -34 9 -77 18 -95 21 -18 3 -49 10 -68 15 -32
8 -52 12 -135 26 -16 3 -37 7 -45 9 -8 2 -34 6 -57 9 -96 13 -129 17 -153 21
-14 2 -52 7 -85 10 -33 3 -74 7 -92 9 -36 5 -206 17 -313 22 -111 5 -495 5
-570 0 -36 -3 -112 -8 -170 -11 -58 -4 -118 -8 -135 -10 -16 -2 -60 -7 -97
-10 -37 -3 -77 -8 -90 -10 -13 -2 -45 -6 -73 -10 -27 -3 -57 -8 -65 -10 -8 -2
-34 -6 -58 -9 -109 -13 -381 -74 -631 -143 -41 -11 -66 -14 -68 -8 -2 6 -22
40 -45 75 -55 85 -236 264 -418 415 -80 65 -210 184 -289 263 l-143 144 6 -63z"/>
</g>
</svg>
